<?xml version="1.0" encoding="UTF-8"?>
<svg width="2142px" height="705px" viewBox="0 0 2142 705" version="1.1" xmlns="http://www.w3.org/2000/svg" xmlns:xlink="http://www.w3.org/1999/xlink">
    <title>Logo-Primary-ShieldLeft-FullColor</title>
    <g id="Logo-Primary-ShieldLeft-FullColor" stroke="none" stroke-width="1" fill="none" fill-rule="evenodd">
        <g id="logo-shield-left" transform="translate(200, 196)">
            <g id="bug/full-color">
                <path d="M0,-1.14867489e-14 L0,224.067157 C0,275.516054 41.8720281,317.348334 93.3698098,317.348334 L356.152883,317.348334 L356.152883,93.281177 C356.152883,41.8322804 314.280855,-1.14867489e-14 262.783073,-1.14867489e-14 L0,-1.14867489e-14 L0,-1.14867489e-14 Z" id="Outer-Shield" fill="#26D07C" fill-rule="nonzero"></path>
                <path d="M14.4386304,14.4249243 L262.783073,14.4249243 C306.098964,14.4249243 341.714253,50.0064042 341.714253,93.281177 L341.714253,302.92341 L93.3698098,302.92341 C50.0539187,302.92341 14.4386304,267.34193 14.4386304,224.067157 L14.4386304,14.4249243" id="Middle-Shield" fill="#FFFFFF"></path>
                <path d="M28.8772608,28.3690178 L28.8772608,221.182172 C28.8772608,257.725314 58.7170969,288.017655 95.7762482,288.017655 L327.275622,288.017655 L327.275622,95.2045003 C327.275622,58.6613587 297.435786,28.3690178 260.376635,28.3690178 L28.8772608,28.3690178 Z" id="Inner-Shield" fill="#1D4094" fill-rule="nonzero"></path>
                <g id="53-lockup" transform="translate(62.5674, 62.508)" fill="#FFFFFF">
                    <g transform="translate(0, 0)">
                        <path d="M203.522284,126.286009 C229.45942,121.025928 233.374967,100.947992 228.97102,88.0386129 C225.055473,77.999192 212.332032,65.5678376 196.669846,65.5678376 L137.452882,65.5678376 C160.45498,73.2171358 166.328763,92.8188583 166.328763,92.8188583 C166.328763,92.8188583 175.626912,119.593665 139.89952,126.764033 C139.89952,126.764033 161.923889,136.32543 165.839436,154.015959 C171.712292,180.789861 137.452882,187.961135 137.452882,187.961135 L195.202791,187.961135 C222.608836,187.961135 233.374967,166.923528 229.950601,152.58098 C227.01371,137.760409 216.247579,131.54609 203.522284,126.286009" id="Fill-4"></path>
                        <polygon id="Fill-6" points="91.4797835 192.332324 141.886846 0 130.218414 0 79.811351 192.332324"></polygon>
                        <path d="M63.734279,126.764486 C79.2987464,126.764486 96.8075058,109.904692 92.4307764,88.8295055 C89.5111148,74.3093291 75.4387142,61.1966485 57.8986398,61.1966485 L0,61.1966485 C24.3188471,69.1582673 30.1554073,90.2334536 30.1554073,90.2334536 C30.1554073,90.2334536 39.8823935,119.271146 2.43243733,126.764486 L63.734279,126.764486 Z" id="Fill-8"></path>
                        <polygon id="Fill-10" points="0 48.0830809 84.245315 48.0830809 84.245315 4.37118918 0 4.37118918"></polygon>
                    </g>
                </g>
            </g>
            <g id="wordmark" transform="translate(458.3215, 94.0142)" fill="#1D4094">
                <g transform="translate(0, 0)">
                    <path d="M1222.9426,103.455753 L1190.58948,103.455753 L1190.58948,25.8639382 L1222.9426,25.8639382 C1244.94288,25.8639382 1258.53073,42.0284417 1258.53073,64.660345 C1258.53073,87.2912492 1244.94288,103.455753 1222.9426,103.455753 M1219.38357,0 L1161.4718,0 L1161.4718,129.319691 L1219.38357,129.319691 C1257.88346,129.319691 1284.41311,103.455953 1284.41311,64.660345 C1284.41311,25.8637384 1257.88346,0 1219.38357,0" id="D"></path>
                    <path d="M1083.93269,51.7278764 L1048.23639,51.7278764 L1048.23639,25.8639382 L1083.93269,25.8639382 C1099.12478,25.8639382 1106.47174,26.9210621 1106.47174,38.7953679 C1106.47174,50.7548909 1099.60788,51.7278764 1083.93269,51.7278764 L1083.93269,51.7278764 Z M1019.11871,0 L1019.11871,129.319691 L1048.23561,129.319691 L1048.23561,75.7202468 L1075.3959,75.7202468 L1112.94206,129.319691 L1148.53061,129.319691 L1109.38331,73.4358214 C1129.68543,69.0130617 1138.32297,57.9741738 1138.32297,38.7661887 C1138.32297,11.5221894 1122.64703,0 1083.82416,0 L1019.11871,0 Z" id="R"></path>
                    <polygon id="I" points="960.879288 129.319391 989.996176 129.319391 989.996176 9.98974836e-05 960.879288 9.98974836e-05"></polygon>
                    <polygon id="H" points="902.644313 48.9569599 844.409538 48.9569599 844.409538 0.000199794967 815.29165 0.000199794967 815.29165 129.319491 844.409538 129.319491 844.409538 74.8204186 902.644313 74.8204186 902.644313 129.319491 931.7612 129.319491 931.7612 0.000199794967 902.644313 0.000199794967"></polygon>
                    <polygon id="T" points="666.468625 0.000399589936 789.40915 0.000399589936 789.40915 25.8638583 742.497831 25.8638583 742.497831 129.319691 713.379944 129.319691 713.379944 25.8638583 666.468625 25.8638583"></polygon>
                    <polygon id="H" points="478.82185 74.8206184 537.056625 74.8206184 537.056625 129.319691 566.174513 129.319691 566.174513 0.000399589936 537.056625 0.000399589936 537.056625 48.9571597 478.82185 48.9571597 478.82185 0.000399589936 449.704962 0.000399589936 449.704962 129.319691 478.82185 129.319691"></polygon>
                    <polygon id="T" points="307.352013 0.000399589936 423.822563 0.000399589936 423.822563 25.8638583 376.911244 25.8638583 376.911244 129.319691 347.793356 129.319691 347.793356 25.8638583 300.419182 25.8638583"></polygon>
                    <polygon id="F" points="213.528775 74.8202188 263.99898 74.8202188 270.792854 48.9567601 213.528775 48.9567601 213.528775 25.8634587 277.910626 25.8634587 284.7045 0 184.411887 0 184.411887 129.319291 213.528775 129.319291"></polygon>
                    <polygon id="I" points="126.176512 129.319391 155.2934 129.319391 155.2934 9.98974836e-05 126.176512 9.98974836e-05"></polygon>
                    <polygon id="F" points="29.1178874 74.8206184 80.8826873 74.8206184 80.8826873 48.9571597 29.1178874 48.9571597 29.1178874 25.8638583 100.293613 25.8638583 100.293613 0.000399589936 0 0.000399589936 0 129.319691 29.1178874 129.319691"></polygon>
                </g>
            </g>
        </g>
    </g>
</svg>